<svg height="285" viewBox="0 0 284 285" width="284" xmlns="http://www.w3.org/2000/svg"><g fill="#0058a6"><path d="m270.073976.44103529c2.275342-.51788235 4.934918-.22385882 6.692377 1.44004706 1.820941 1.61044706 2.535953 4.07957647 2.803247 6.4184.380894 2.12164705-.183765 4.28004705.207153 6.39835295.334118 2.1316706.711671 4.2566588 1.256282 6.3448941.915483 3.2710118 1.329789 6.6623059 1.523577 10.0469177.0568 2.7932235-.725036 5.813647-2.860047 7.7515294-2.218541 2.1984941-5.352565 3.2543059-8.419765 3.4547764-2.729741-.0066823-5.646588-.9388705-7.387341-3.144047-.99233-1.3765647-1.797553-2.9936941-1.807577-4.7244235.070165-1.6338353.698306-3.2376 1.720706-4.5105883 1.506871-1.7775059 3.795577-2.5994353 5.442777-4.223247 1.33647-1.1861177 2.535953-2.7865412 2.515906-4.6542589-.307389-1.7908706-1.426683-3.2877176-2.268659-4.8547294-1.556988-2.7598117-3.695341-5.5029176-3.585083-8.83741174-.036753-2.76649412 1.169412-6.18117647 4.166447-6.90621177zm11.456895 37.47797651c1.573694-.284 2.332141 1.6037647 2.161741 2.9001411.066823.9823059-1.052471 1.854353-1.927859 1.2061647-1.283012-.8018823-1.864377-3.4180235-.233882-4.1063058zm-3.073883 2.6762823c1.266306-.6147765 2.422353.7016471 2.566024 1.8744.31407 1.3331294.036753 3.1741177-1.496847 3.5817412-2.679624.0467765-3.284377-4.3401882-1.069177-5.4561412zm-14.744612.9923294c.751765-.2439059 1.677271-.4143059 2.368895.0801883 1.062494.6648941 1.577035 1.9178353 1.683953 3.1273411.210494 1.8343059-.187106 3.899153-1.573695 5.2122353-.771811.8219294-2.078211 1.1493647-3.124.7150118-1.2496-.7350588-2.004705-2.1483765-2.008047-3.5884235-.163717-2.0848941.671577-4.5840941 2.652894-5.546353z"/><path d="m273.284847 44.1336c.213835-.9221647.905459-2.0915765 2.028094-1.8075765 1.9312.5446118 2.141694 3.1774589 1.293035 4.6876706-.464423.7985412-1.409976.7952-2.2152.7216941-.808564-1.0056941-1.386588-2.2853647-1.105929-3.6017882zm-4.898165.3875765c.260612-.9121412 1.125977-1.3932706 1.907812-1.8075765 2.338824.4443765 2.936894 3.3077647 2.165082 5.2389647-.404282 1.0391059-1.704 1.7574588-2.7264 1.0992471-1.610447-.8553412-1.794211-2.9502589-1.346494-4.5306353zm-35.693788 17.4977411c1.967953-.284 4.2032-.1369882 5.780235 1.2161883 1.426683 1.042447 1.927859 2.8767529 2.038118 4.5607059.273977 2.7030117-.892094 5.3525647-2.569365 7.4140706-1.403294 1.7173647-2.826635 3.4213647-4.189835 5.1721411-.761788.9889883-1.413318 2.1984941-1.229553 3.4881883.157035 1.5402823 1.095906 2.8333176 2.0448 3.9993882 1.0792 1.3765647 2.626165 2.2853647 3.722071 3.6485647 1.643859 1.9144941 2.429035 4.7678588 1.426682 7.1634824-.761788 1.6806119-1.967953 3.2309179-3.615153 4.1129879-2.98367 1.456753-6.648941 1.336471-9.565788-.240564-2.545977-1.1928-4.824659-3.2041886-5.82033-5.8871534-.581364-1.8543529-.728376-3.8590588-.310729-5.7635294.557977-2.6863058 1.2496-5.3525647 2.228565-7.9185882 1.593741-3.8056 3.374588-7.6613176 3.645223-11.8377882.183765-1.7708236.771812-3.4881883 1.530259-5.0886118.912141-1.9846588 2.709694-3.6118118 4.8848-4.0394824zm-14.253459 40.0440004c-1.319764-1.369883-.584706-4.1731298 1.399953-4.3635768 1.359859.0501176 1.583718 1.8309647.955577 2.7664938-.3408 1.035765-1.359859 1.460094-2.35553 1.597083zm3.217553-1.373224c1.159388-.360847 2.24193.748424 2.265318 1.867718.237223 1.617129-.791859 3.845694-2.692988 3.655247-2.235247-.958918-1.580377-4.6576.42767-5.522965z"/><path d="m224.801035 108.624988c-1.867717-1.283012-1.480141-4.647576.641506-5.422729.855341-.3976 1.714024.334117 1.95793 1.129317.554635 1.567012-.237224 3.307765-1.543624 4.233271-.263953.016706-.791859.046777-1.055812.060141zm10.548094-4.878117c1.232895-.257271 2.576047.414305 3.177459 1.510211 1.125977 1.854353.999012 4.206542.187106 6.157789-.691623 1.486823-2.646212 2.479153-4.133035 1.473458-2.138353-1.493505-2.292047-4.554023-1.470118-6.822682.364188-1.042447 1.146024-2.008047 2.238588-2.318776z"/><path d="m229.338353 104.655671c.855341-.6248 2.255294-.207153 2.659576.76847.902118 1.690635.284 4.233271-1.490164 5.105318-1.27633.631482-2.656236-.474447-2.793224-1.767483-.14367-1.483482.257271-3.284376 1.623812-4.106305zm31.029506 32.419435c3.200847-1.035765 6.67567 1.356518 7.8384 4.306776 1.139341 3.097271-.263953 6.364942-1.824283 9.034542-2.422352 3.194164-3.815623 6.999764-4.964988 10.805364-1.075859 3.170777-2.525929 6.211247-4.256659 9.077977-1.4768 2.094917-3.60847 3.932564-6.22127 4.320141-5.162118.975623-11.309883-1.593741-13.134165-6.772565-.65487-2.482494-.364188-5.476188 1.523577-7.370635 1.516894-1.570353 3.728753-2.315435 5.883811-2.312094 2.278683-.013365 4.680989-.02673 6.752518-1.109271.995671-.531247 1.941224-1.379906 2.185129-2.52927.785177-3.742118.023389-7.668.988989-11.380047.758447-2.63953 2.626164-5.058542 5.228941-6.070918zm-26.338494 31.574118c.915482-.337459 2.01807-.547953 2.900141.006682 1.259623.537929 1.637176 2.124988 1.3064 3.3512-.394259 1.523576-1.346494 2.886776-2.545977 3.889129-1.115953.788518-2.649553 1.346494-3.959294.698306-1.453411-.524565-1.730729-2.345506-1.403294-3.668612.551294-1.867717 1.941224-3.451435 3.702024-4.276705z"/><path d="m239.368565 172.882494c1.199482-.534588 2.676282.571341 2.562682 1.8744.030071 1.777506-1.159388 3.815624-3.037129 4.096282-1.142683.1136-2.088236-1.029082-2.058165-2.114964-.036753-1.627153.988988-3.281036 2.532612-3.855718zm3.444753 2.766494c.668235-.728376 2.1016-1.289694 2.806588-.304047 1.202823 1.847671-.434353 4.731106-2.629506 4.697694-.404282-.187106-.768471-.447717-1.132659-.684941-.260612-1.3064-.043435-2.753129.955577-3.708706zm9.5424-.835294c1.226211-.37087 2.061506 1.202824 1.660564 2.245271-.240564 1.012376-1.122635 2.398964-2.335482 2.004706-1.373224-1.065836-.915482-3.625177.674918-4.249977z"/><path d="m245.967388 179.053647c-.050117-1.9312 1.480141-3.986023 3.575059-3.702023 1.8744 1.633835.517882 4.904847-1.727388 5.359247-.982306.180423-1.704-.791859-1.847671-1.657224zm-64.036988 1.259624c2.221882-.641506 4.871435-.284 6.565412 1.383247 1.453412 1.376564 2.743106 3.260988 2.465788 5.362588-.484471 2.582729-2.398965 4.721082-4.691012 5.9072-3.828988 1.924518-8.3496 1.256282-12.338964 2.652894-1.834306.831953-2.549318 3.007059-2.646212 4.881459-.374212 2.806588.838635 5.760188-.410965 8.446494-.808565 2.195153-2.826635 3.852376-5.152094 4.166447-2.662918.674918-5.456141-.414306-7.404047-2.235247-2.021412-1.784188-3.204188-4.350212-3.712047-6.963012-.501177-2.542635-.167059-5.379294 1.460094-7.47087 1.460094-2.228565 3.828988-3.551671 6.007435-4.96833 4.283388-2.776517 9.448847-4.002729 13.414824-7.290447 1.884423-1.667247 4.022776-3.127341 6.441788-3.872423zm-32.202259 19.793129c.320753-1.573694 1.998024-2.606118 3.54833-2.181788.845317.253929 1.129317 1.3632.571341 2.031435-.728377 1.069177-2.138353 1.293035-3.334494 1.075859-.263953-.31073-.524565-.618118-.785177-.925506zm-.912141 3.845694c.661553-1.934541 3.207529-3.144047 4.988376-1.881082.758448 2.295388-1.800894 4.637553-4.016094 3.922541-.831953-.263953-1.289694-1.229553-.972282-2.041459zm2.529271 2.505882c.952235-.644847 2.522588-.972282 3.327811.060142.631483.88207.070165 2.004706-.608094 2.676282-.82527.882071-2.048141 1.196141-3.220894 1.202824-.417647-.447718-.798541-.928848-1.136-1.433365.324094-.952235.704988-1.991341 1.637177-2.505883zm.070164 6.772565c.267294-1.901129 2.068189-3.344517 3.922541-3.484847 1.065836-.1704 2.021412.741741 2.124989 1.764141-.106918 2.532612-3.43473 4.560706-5.583106 2.903483-.153694-.3976-.31073-.791859-.464424-1.182777z"/><path d="m157.863906 213.3408c1.262965-.581365 3.150729-.611435 3.952612.721694 1.05247 1.510212.287341 3.49153-.691624 4.831341-1.229553 1.460094-3.057176 2.773177-5.068565 2.415671-1.316423-.200471-2.141694-1.563671-2.01807-2.829977.080188-2.305411 1.8744-4.143058 3.825647-5.138729zm-120.603106 27.441082c2.9034824-.431011 6.2045647-.611435 8.6603294 1.296377 2.0514824 1.443388 2.7765177 4.082917 2.6796235 6.478541-.1369882 2.018071-1.7273882 3.591765-3.4982117 4.366918-2.2753412 1.269647-5.0418353 1.283011-7.4875765.54127-2.7564706-.835294-5.4227294-1.984659-8.236-2.622823-1.7273882-.434353-3.3846118.668235-4.4170353 1.967953-1.3999529 1.690635-2.0615059 3.808941-2.9068235 5.7936-1.0491294 2.221882-3.1540706 4.112988-5.6632941 4.363576-2.7999059.263953-5.7434824-1.029082-7.29712945-3.404659-2.8968-4.333506-2.36555294-10.614917 1.09256475-14.484 1.4099764-1.366541 3.2543058-2.251953 5.1454117-2.719717 3.4213647-.641506 6.9162353-.912142 10.3910588-.715012 3.8590589.25727 7.7949648.213835 11.5370824-.862024zm-31.09298824 2.261977c1.27298824-.534588 3.33449412-.180424 3.4514353 1.480141-.40094118 1.884424-3.36456471 1.757459-4.23661177.314071-.5813647-.678259.11694118-1.530259.78517647-1.794212zm-1.7608 2.923529c1.23289412-.217176 3.04381177.157036 3.27101177 1.627153-.02338824 2.759812-4.94828235 3.341177-5.60315294.654871-.05011765-1.272988 1.20950588-2.084894 2.33214117-2.282024z"/><path d="m2.65623529 250.574871c1.43336471-.718353 3.21087059-.210495 4.11632942 1.092564-.13698824 2.846683-4.7712 3.404659-5.84705883.882071.40762353-.785177.81190588-1.693977 1.73072941-1.974635z"/><path d="m1.95124706 255.212424c1.53694118-.788518 3.43138823-.668236 4.80461176.404282.16371765.745082.50451765 1.637176-.10691764 2.282023-1.30974118 1.767483-4.7578353 2.108283-5.85374118-.050117-.57468235-1.04913.284-2.114965 1.15604706-2.636188zm120.80691794 4.303435c1.8744-.477788 3.935906-.420988 5.750164.280659 1.78753.895435 2.736424 2.860047 2.983671 4.774541.447718 2.155059-.394259 4.450447-1.984659 5.943953-1.45007 1.490164-3.444753 2.225223-5.36927 2.893459-2.01473.524564-4.133036.755105-6.017459 1.707341-3.454777 1.349835-6.55873 3.458117-10.060283 4.707717-3.144047 1.166071-6.501929 2.46913-9.9065878 1.653883-3.7822118-1.042447-6.4317647-4.423718-7.7214588-7.985412-.7083295-2.435718-.6782589-5.182165.5078588-7.464188 1.0357647-1.717365 2.632847-3.1808 4.564047-3.795577 2.4992-.664894 5.2322828.240565 7.0799528 1.988 2.051483 1.824283 4.163106 4.092941 7.066588 4.3168 2.104942.163718 3.571718-1.603764 4.978353-2.886776 2.495859-2.278683 4.711059-5.218918 8.129083-6.1344z"/><path d="m4.08625882 259.723012c1.32310589-.330777 2.79322353-.561318 4.0762353.046776 1.44338823.6816 1.89444708 2.709694 1.01905882 4.00273-1.05581176 1.640517-2.96028235 2.582729-4.8848 2.666258-1.8744.417648-4.37025882-1.035764-3.9893647-3.170776.43435294-1.764141 2.02475294-3.147388 3.77887058-3.544988zm79.56343528 4.336847c1.5168941-.354165 3.2008471-.240565 4.5840941.521223 1.1794353.621459 1.9211765 2.181789 1.343153 3.451436-.5078588 1.256282-1.8209412 1.921176-3.0571765 2.268658-1.6639059.491153-3.6251765.527906-5.0552-.588047-.9722823-.604753-1.6505412-1.851011-1.2061647-2.980329.5412706-1.423341 1.9378824-2.368894 3.3912941-2.672941z"/><path d="m83.2186824 273.976471c-.0033412-2.636189 3.3378352-4.106306 5.4695058-2.850024.7617883.467765 1.1660706 1.560329.718353 2.372235-.8018824 1.470118-2.6428706 2.131671-4.239953 1.974636-.9154823-.053459-1.4467294-.841977-1.9479058-1.496847zm4.7945882 1.543623c1.1961412-.451059 3.1407059-.08687 3.2275765 1.460094-.263953 2.268659-3.7621647 3.324471-5.2122353 1.550306-.7784942-1.366541.7684706-2.6696 1.9846588-3.0104z"/><path d="m90.3320471 279.038353c1.2896941-.6248 3.3311529-.364188 3.6886588 1.256282-.0100235 1.643859-1.7908706 2.542636-3.2342588 2.629506-.9923295.120283-2.308753-.451059-2.2853647-1.603765-.0902118-1.10927.9255058-1.881082 1.8309647-2.282023zm4.3401882 2.412329c.5613176-.253929 1.2228706-.294023 1.8008941-.063482.9054588.547953.7684706 1.954588-.0467765 2.522588-.9188235.715012-2.4323764 1.239577-3.3578823.257271-.3842353-1.176094.568-2.292047 1.6037647-2.716377z"/></g></svg>