<svg height="56" viewBox="0 0 82 56" width="82" xmlns="http://www.w3.org/2000/svg"><path d="m1.50829667 55.9744536c-1.19873266-.1707584-1.73177254-1.6215852-1.42157568-2.6478408.32123287-1.1054717.90512143-2.1168821 1.58628114-3.0357522 3.02287709-3.8567372 5.0661162-8.5796028 5.28905696-13.527866.07314084-1.3300834-.14432702-2.6613519-.07455928-3.9921748.07473839-4.9390696 1.03059318-10.047977 3.89249669-14.1414905 2.2730432-3.3402585 5.8176847-5.700007 9.6896438-6.8937284 3.8128269-1.1719471 7.9112638-1.4544982 11.8939126-.9356574 1.6065806-2.1419945 3.6901704-4.08387631 6.3437267-4.84821771 2.7692612-.8553479 5.8561223-.45474196 8.4600147.84392012.2758132.20984635.5559965-.02921354.7950253-.16265906 2.0618134-1.31441439 4.5863527-2.05146036 7.070885-1.70474996.8783147.09182389 1.692033.45434158 2.5327543.70293148 1.4130294-2.09237239 4.2817195-2.89986711 6.6995053-2.12661081 1.4169212-.67418591 2.7974414-1.47967442 4.3565007-1.82568262 1.0555079-.24624081 2.2282938-.31739329 3.2274883.21432171 1.2752542-1.04742042 3.1667768-1.2788516 4.6732353-.50565213 1.0114985-.65712 2.1223745-1.24902885 3.3543698-1.36799246.7340262-.08050172 1.4960026.08829438 2.1229417.49323428-.109187 1.76162329-1.2792191 3.17949869-2.5573418 4.28360884-.7495096.63466096-1.5652734 1.1887928-2.4122678 1.68918043.0007265 2.1435284-1.4954043 4.03182999-3.5020013 4.71047609-.063758 1.3529837-.3095524 2.7424818-1.0727042 3.8795978-.8387145 1.3498238-2.2068394 2.300458-3.6992945 2.8364986.1957401 2.283552-.3224622 4.7041169-1.882903 6.4254691-.7547344.9166348-1.7732443 1.5479006-2.8054087 2.1171172.3826862 2.7535601-.2362768 5.6887445-1.995486 7.8528577-1.7729849 2.256624-4.4255454 3.7090072-7.2085203 4.4084988-.6538015 3.3009858-1.8307928 6.6088499-4.140522 9.1177613-2.1876721 2.4384038-5.3674548 3.8915706-8.6541994 4.1957573-1.9818338.1821031-4.0592856.1695497-5.9522981-.5754993-6.7180117-2.2145557-14.0337345-2.8544931-20.886061-1.2095149-4.0171203.9743073-7.90393691 2.6250571-11.1591183 5.1455362-.76675851.418974-1.67216387.698124-2.56357693.5843221z" fill="#0058a6"/></svg>