<svg height="94" viewBox="0 0 45 94" width="45" xmlns="http://www.w3.org/2000/svg"><path d="m10.936997 7.49096114c.2948954-2.44711428.8795125-4.84249253 1.6400322-7.18096114.7605197 1.74867786 1.5158657 3.50252932 2.2453438 5.26155438.2535065-.53288112.5121867-1.06576224.7656932-1.59346976.3414578.68291561.677742 1.36583122 1.0243734 2.04357323.6104852-1.84180271 1.5572546-3.53874454 2.6023224-5.16325592.5639228 1.55208094 1.1019775 3.11450908 1.6193378 4.68211083.9002069-.77086686 1.8107611-1.54173373 2.7471833-2.27638537.455277 3.96297999-1.252012 7.67762701-1.6400322 11.55782941 1.759025-2.4212463 3.4611405-5.00804786 6.2600597-6.33766386-.9778109 1.61416416-1.9245803 3.24384916-2.8092665 4.90974936.9985055-.3724994 1.9970109-.7449988 2.9955163-1.1174983-1.1847552 2.1832606-2.1418717 4.4751667-3.181766 6.7256841 1.4537825-.9157278 2.9955162-1.681421 4.5993332-2.2970798-1.3761784 2.0125316-2.710968 4.0612785-3.7508623 6.2755806 1.5210394-.2328121 3.0472523-.4345827 4.5786388-.5949644-2.2970798 1.1899288-4.4803403 2.6592321-6.0789837 4.7286733 1.1123247-.2845482 2.2194758-.5897908 3.3214532-.9157278-1.1744079.9105542-2.2039549 1.9918373-3.0782938 3.1921132 1.4744769-.2897218 2.9437802-.626006 4.4027362-.977811-.8950333.8070821-1.784893 1.6141642-2.6695792 2.4315935 1.226144-.0724305 2.4522879-.1603817 3.6784319-.2586802-1.7331571 1.1588871-3.4766613 2.3746838-4.6458956 4.1388825 1.6503793-.4345827 3.3318004-.7398252 5.0390894-.8691653-1.3503104.7708668-2.6747528 1.5882961-3.885376 2.5609335 2.0435733 1.0605887 3.8232928 2.55576 5.8461716 3.6525638 1.3865256.7605197 2.0642676 2.2453438 2.8610025 3.533571 2.3384686.8174293 2.5505864 3.5283973 3.4094045 5.4995401 3.740515 1.6400322 1.7952403 6.5187399 3.6008277 9.4107841 1.4434353 2.2660382 1.526213 4.9718326 1.6089906 7.5689814.4759715.5018395.9829846 1.0761094.8846862 1.8366291.0051736 2.8816969-.4707979 5.7375258-.7398253 8.603702.2017705.0206944.6104852.0620832.8122557.0879512-.3052426 2.8351345-1.5158657 5.4891929-3.4507933 7.5896758.1086457.1810761.3311106.5484019.4397563.7346517-1.2675328 1.7021154-2.5712808 3.5283973-4.5424236 4.4699931-1.6400322.7656932-3.4042308 1.2468383-4.966659 2.1936077-1.7952403 1.0450678-3.8129455 1.9245803-5.94447 1.4899977-3.5594389 1.8055875-7.3413428-.2690274-11.0197746-.3414578-2.6281904-.0724305-4.7959301-1.6865946-6.78259372-3.233502.10347206-.1810761.30006898-.5484019.39836744-.729478-2.45228788-1.4848241-4.39756266-3.6836054-5.44263049-6.3635319.18107611-.0672568.54840193-.2017705.73465164-.2690273-1.21062313-3.1765924-2.6540584-6.270407-3.52322373-9.5659922.20177053-.1965969.60531157-.5949644.80708209-.7967349-.43975626-1.9349276-1.1640607-3.8957231-.8329501-5.9030812.1759025-1.4951713.79673488-2.985169.36732582-4.4958611-.43458266-2.4005518-1.329616-5.3702.78121407-7.2689124.12416648-2.0228788.23281214-4.0819728 1.07610945-5.9599908.17590251.0982985.51736032.2948954.69326282.3983675.27420097-2.3643367 1.20027593-4.7028053 3.21280754-6.1048517.9933318-1.3606576 2.08496206-2.6437112 3.34732127-3.7612095-1.44860892-2.5143711-3.97332724-3.9940216-6.48252476-5.2770752 1.71763624.2121177 3.42492527.4449299 5.14256151.6415268-1.76937227-2.1987813-4.33547942-3.4145781-6.82915613-4.5786388 1.92458036.1810761 3.84916073.4035411 5.76339388.7087837-1.68142101-1.6762475-2.85065532-3.8491608-4.83214532-5.2201656-1.00885261-.7760405-2.01253161-1.5624281-3.11450908-2.2091285v-.2069442c1.75385146.3569787 3.53357094.5846172 5.26155438 1.0709359-1.23131754-1.8728443-2.32812141-3.8336399-3.37836284-5.8151299.4966659-.0310416 1.4899977-.0931249 1.9918372-.1293401-.75017245-1.5417337-1.52621292-3.0731203-2.27121177-4.6200276 1.62451138.4087147 3.23350195.8691653 4.81662451 1.4072201-.94676937-1.7383307-2.01770522-3.3990573-3.09898827-5.0546103 1.39169924.6311796 2.76270407 1.303748 4.09232007 2.0435732-.35180501-2.67475278-.35697861-5.37537361-.35180501-8.07082084 1.3192688 1.33996321 2.61784318 2.70579443 3.87502873 4.10784088z" fill="#0058a6"/></svg>