<svg height="89" viewBox="0 0 90 89" width="90" xmlns="http://www.w3.org/2000/svg"><path d="m40.4417564 3.28725584c4.6323425 7.34447096 7.3633648 15.66036706 11.104951 23.44872786.9007499 1.5500685 1.9256164 3.782117 4.03147 3.7248062 1.9052169-.0880405 3.6629087-.9231952 5.3895829-1.6470369 6.8576185-3.0453253 13.5838627-6.5064439 20.8054729-8.6360931 1.8339067-.4489122 3.8734161-1.0492225 5.7167965-.306151 1.2347164.4880622 1.6684902 1.8206493 2.354011 2.8488786l.1559593.3351487c-.5817559 2.0422504-1.815616 3.7806331-3.5341307 5.0262528-5.543341 4.1047894-11.2464611 8.0145284-16.5197345 12.4772191-1.8172668 1.6859571-3.889184 3.2696042-5.0034196 5.546837-.9414384 1.8921998.6590268 3.7446354 1.7336283 5.1788893 5.316625 6.1602651 11.6881706 11.2950871 17.2285505 17.2539781 1.0588022 1.1926724 2.0034351 2.5700908 2.3294418 4.1605047.2032348 1.4748904-.8290718 2.6972367-1.803866 3.6575762l-.7709488.3602443c-1.618464.2445064-3.2518717-.0918361-4.7453792-.7355987-7.2313602-3.2600158-13.7549685-7.8466018-20.6649678-11.7062996-1.9740519-.9793858-4.0129812-2.3503119-6.3066673-2.1775693-2.0860358.7672799-3.1054003 2.9517722-4.4287837 4.5867578-4.563152 6.641257-8.561141 13.6961636-13.8541705 19.8070991-1.5127132 1.7027075-4.051316 3.3661112-6.3033656 2.0117826-2.1085432-1.0756019-2.1674623-3.7382654-1.539623-5.7259769 2.0253281-6.3406038 4.6937146-12.4561012 6.7855396-18.7724519.8914891-2.9338726 2.0913515-5.9910931 1.5606126-9.1041073-1.2693558-2.1938774-4.0882028-2.2598376-6.2777585-2.8273191-7.4598053-1.244545-15.0358425-1.7155485-22.46536372-3.1471362-1.54840708-.2723261-2.99127789-.9259186-4.29087169-1.805521l-1.12872219-2.4255679c.05509761-2.328663 1.85723761-3.9729734 4.03537907-4.4236771 6.95958003-1.5507753 14.11226433-1.8708906 21.17554733-2.7094002 3.1140952-.397038 6.37434-.5096688 9.2548246-1.8833065 1.9073405-.8843347 1.8853981-3.363722 1.8647701-5.1729038-.5057736-8.3390934-2.8654244-16.4204973-4.1156215-24.65378954-.2684331-2.05991927.0833795-4.70012121 2.3111338-5.53362246 2.4628771-1.14392236 4.7237586 1.01541247 5.915723 2.96882614z" fill="#0058a6"/></svg>