<svg height="73" viewBox="0 0 73 73" width="73" xmlns="http://www.w3.org/2000/svg"><path d="m33.410303 3.37073871c-.2210472-1.65457329 1.161845-3.23099895 2.7954372-3.35765197 1.2103676-.11317926 2.4800407.51469626 3.0326584 1.61415212.5121824.85692884.3612232 1.88901607.2695698 2.82948201-.4609643 4.60262406-.8141005 9.21602703-1.2696731 13.81865113 1.091757.1562952 2.175427.3557063 3.2483142.6036228.9381023-3.2660306 1.9112487-6.5212823 2.8628297-9.78461821.2938307-1.28808798 1.5688952-2.31478574 2.9140478-2.13423785 1.9085531.03503169 3.1755303 2.36329117 2.237428 4.00978026-1.52846 3.093567-3.0838769 6.1736602-4.6419893 9.2510587 1.1375838.6386545 2.2751678 1.2961723 3.2537056 2.1692696 3.3076194-3.8480955 6.4723671-7.8174546 9.7826823-11.6655501 1.1672365-1.29078276 3.4181429-1.21802464 4.5503356.0808423.8491443.9054343.9327108 2.3147858.5040951 3.4331048-.5364437 1.0240031-1.5742867 1.6330154-2.4180397 2.3740702-2.6714352 2.2716698-5.4048713 4.4732763-8.0628281 6.7611146-.6361841.5039173-1.2561943 1.0266978-1.8977702 1.5225308.7655779.792255 1.3262826 1.7488893 1.8869877 2.6893553 2.8493509-1.6114574 5.7633987-3.1124302 8.6154455-4.7238876.8787971-.5658964 2.0271637-.8380656 3.0057015-.3422326 1.4098494.5685911 2.0109897 2.4037124 1.2966299 3.726832-.4474855 1.0698137-1.6389833 1.4282147-2.6498694 1.7408051-2.9302221 1.0240031-5.9197493 1.8809319-8.8149273 2.9938616.460964 1.2126349.6280972 2.5034179.7763605 3.7834215 4.8118181-.4176854 9.618245-.8596237 14.4273671-1.3096459.9327112-.1239582 1.9570757-.0296422 2.7064794.592844 1.6228093 1.1560453 1.5608083 3.937022-.1293935 5.0068354-.9515807.7787814-2.2374281.5578122-3.3615334.433854-4.5422485-.4365486-9.092584-.7976443-13.6321367-1.2503614-.1401764 1.0913716-.3180921 2.1773537-.5930533 3.2417779 3.3480549.980887 6.7041971 1.9402162 10.0414692 2.956135 1.1294967.3098957 1.9759455 1.4039619 1.9112486 2.5869549.0997408 1.6464891-1.5500254 3.1097355-3.1782258 2.7378607-1.2588902-.3206747-2.3695174-1.0482557-3.5367539-1.5979837-2.1781226-1.1183189-4.3885938-2.1800486-6.5721078-3.2902833-.6604457 1.1290979-1.3101083 2.2797541-2.2050797 3.2471674 4.0004136 3.2606411 7.9172603 6.6263776 11.9203695 9.8789343.9327112 1.2288038 1.0054947 3.1393777-.1105236 4.2765599-1.099844 1.2288038-3.1297032 1.182993-4.375115.1967164-.9273197-1.223414-1.9624671-2.363291-2.9598748-3.5301154-2.2886462-2.8106189-4.6500763-5.564648-6.9279397-8.383351-.8087091.7518336-1.7629856 1.3123407-2.6983923 1.8890161 1.6848103 3.0666193 3.3884905 6.1224601 5.0355611 9.2106375.8167958 1.4874991-.107828 3.6594632-1.8249866 3.937022-1.3397611.3826539-2.8358725-.5039172-3.2537057-1.8108684-1.1025395-3.2956729-2.183514-6.59943-3.2806624-9.8977975-1.2534988.3988221-2.5447373.6790755-3.854846.7949497.4663558 4.9771935.8922756 9.9624715 1.3586313 14.939665.0835664.9162133-.2453085 1.8593739-.9165368 2.4926388-1.2211505 1.2907827-3.587972 1.1506562-4.6419893-.2829483-.5526177-.6709913-.7197509-1.571036-.6092273-2.417186.4663554-4.9098249.8707098-9.8277342 1.3505436-14.7348642-1.0836697-.1320427-2.1673397-.2964219-3.21327-.6144017-.9839293 3.2202198-1.9031617 6.4593031-2.8547424 9.6903019-.1860031.5712859-.3854846 1.1749089-.8491444 1.5872047-1.08367 1.0617296-3.1108337.9781924-4.0219791-.2694744-.754795-.8084236-.7844476-2.0587849-.3396577-3.0288931 1.5230684-3.1151251 3.1539648-6.1790498 4.625815-9.3184275-1.1591494-.57937-2.2670807-1.2826986-3.2267486-2.1584905-.5013995.6467386-1.0513216 1.2503616-1.5554168 1.8944057-2.7145663 3.2148305-5.3967843 6.4566085-8.0924807 9.6849127-.8734056 1.1398771-2.5447374 1.2988668-3.7955405.7599178-1.98942397-.9323815-2.25090649-4.0933171-.4151372-5.319426 3.7928448-3.1663251 7.6072552-6.3110924 11.3947087-9.4828068-.7709692-.7895604-1.3208912-1.7515842-1.8869875-2.6866607-2.8170027 1.6087628-5.7013979 3.093567-8.5237921 4.688856-.7628821.4176854-1.6389834.8245919-2.52586748.5820649-1.41524062-.2344428-2.4827364-1.8027842-2.09994753-3.2040515.13748053-1.0536452 1.00549477-1.9159638 2.01638093-2.1827435 3.23483568-1.0455607 6.45080148-2.1557955 9.69102858-3.1878829-.3935717-1.2584458-.6280972-2.5627024-.7952304-3.8696534-4.3589411.3664853-8.71518653.7760865-13.07143193 1.1560454-1.00010336.1374319-2.00559813.2155796-3.01648429.1697691-1.19688919-.5578125-2.28055915-1.6680473-2.21855813-3.0773987-.02695698-1.7165524 1.60393936-3.2336937 3.31840229-3.0531459 4.99512543.455412 9.99025086.9108238 14.98807206 1.3419831.1940901-1.088677.301918-2.1935223.576879-3.2660307-3.3938818-.9701082-6.7958506-1.9267425-10.16547117-2.9830825-1.80072518-.5362542-2.40186549-3.1259039-1.06480007-4.4220762.78175196-.9539396 2.22664522-1.1425717 3.30222804-.5955386 3.1216165 1.5063624 6.1785362 3.1474619 9.3217183 4.6080136.5849661-1.1479613 1.2319332-2.2905331 2.1511657-3.209441-3.8871942-3.1851884-7.7123875-6.4458295-11.5780161-9.6579653-1.63359202-1.2611405-1.33976111-4.2981179.5876618-5.1280992 1.1995849-.52817004 2.7981329-.42038025 3.6931041.6251807 3.2644884 3.8885167 6.5208896 7.7851177 9.7772909 11.6817186.7790562-.7733918 1.7333328-1.3312039 2.6687395-1.8863213-1.6794189-2.9803877-3.2914454-5.9985019-4.9277331-9.0031423-.6227059-1.0428662-.5094866-2.49802841.3558319-3.37112571 1.2723687-1.35545661 3.9950221-.94855017 4.5584227.9216027 1.134888 3.31184131 2.2482108 6.63715631 3.3103151 9.97594511 1.2750645-.3934327 2.5986513-.5874543 3.9114555-.8111182-.5283564-4.9556356-.9084495-9.92743966-1.3775008-14.88846479z" fill="#0058a6"/></svg>